<?xml version="1.0" encoding="UTF-8" standalone="no"?>
<svg
   xmlns:dc="http://purl.org/dc/elements/1.1/"
   xmlns:cc="http://creativecommons.org/ns#"
   xmlns:rdf="http://www.w3.org/1999/02/22-rdf-syntax-ns#"
   xmlns:svg="http://www.w3.org/2000/svg"
   xmlns="http://www.w3.org/2000/svg"
   xmlns:sodipodi="http://sodipodi.sourceforge.net/DTD/sodipodi-0.dtd"
   xmlns:inkscape="http://www.inkscape.org/namespaces/inkscape"
   viewBox="0 0 382.72604 332.58493"
   id="svg92"
   height="332.58493"
   width="382.72604"
   version="1.1"
   sodipodi:docname="UGMA.svg"
   inkscape:version="0.92.4 (unknown)">
  <sodipodi:namedview
     pagecolor="#ffffff"
     bordercolor="#666666"
     borderopacity="1"
     objecttolerance="10"
     gridtolerance="10"
     guidetolerance="10"
     inkscape:pageopacity="0"
     inkscape:pageshadow="2"
     inkscape:window-width="1366"
     inkscape:window-height="671"
     id="namedview52"
     showgrid="false"
     fit-margin-top="0"
     fit-margin-left="0"
     fit-margin-right="0"
     fit-margin-bottom="0"
     inkscape:zoom="0.2979798"
     inkscape:cx="-254.35646"
     inkscape:cy="1.0588326"
     inkscape:window-x="0"
     inkscape:window-y="27"
     inkscape:window-maximized="1"
     inkscape:current-layer="svg92" />
  <metadata
     id="metadata98">
    <rdf:RDF>
      <cc:Work
         rdf:about="">
        <dc:format>image/svg+xml</dc:format>
        <dc:type
           rdf:resource="http://purl.org/dc/dcmitype/StillImage" />
        <dc:title></dc:title>
      </cc:Work>
    </rdf:RDF>
  </metadata>
  <defs
     id="defs96" />
  <g
     id="Layer1000"
     transform="translate(-108.98357,-198.71119)">
    <path
       id="path2"
       style="fill:#102a83;fill-rule:evenodd;stroke:#102a83;stroke-width:0.78329998;stroke-linecap:round;stroke-linejoin:round;stroke-dasharray:none"
       d="m 300.9322,374.5555 a 22.2562,22.2562 0 0 1 22.2563,22.2562 22.2562,22.2562 0 1 1 -22.2563,-22.2562 z"
       inkscape:connector-curvature="0" />
    <g
       id="Layer1001">
      <g
         id="Layer1002">
        <path
           id="path4"
           style="fill:#102a83;fill-rule:evenodd;stroke:#102a83;stroke-width:0.78350002;stroke-linecap:round;stroke-linejoin:round;stroke-dasharray:none"
           d="m 262.5964,400.9463 -141.1506,4.1551 -12.0705,-26.6047 153.0833,15.8071 c -0.0535,0.8308 -0.0854,1.6647 -0.0854,2.5089 0,1.3974 0.0782,2.7742 0.2232,4.1336 z"
           inkscape:connector-curvature="0" />
        <path
           id="path6"
           style="fill:#ffec00;fill-rule:evenodd;stroke:#ffec00;stroke-width:0.78350002;stroke-linecap:round;stroke-linejoin:round;stroke-dasharray:none"
           d="m 263.0714,389.4917 -136.1307,-34.4327 -17.5654,23.4377 153.0823,15.8082 c 0.1059,-1.6349 0.3105,-3.24 0.6138,-4.8132 z"
           inkscape:connector-curvature="0" />
        <path
           id="path8"
           style="fill:#102a83;fill-rule:evenodd;stroke:#102a83;stroke-width:0.78350002;stroke-linecap:round;stroke-linejoin:round;stroke-dasharray:none"
           d="m 263.0714,389.4917 -136.1307,-34.4327 -5.137,-33.4897 142.7854,62.337 c -0.6406,1.8045 -1.1496,3.6687 -1.5177,5.5854 z"
           inkscape:connector-curvature="0" />
        <path
           id="path10"
           style="fill:#ffec00;fill-rule:evenodd;stroke:#ffec00;stroke-width:0.78350002;stroke-linecap:round;stroke-linejoin:round;stroke-dasharray:none"
           d="m 121.8037,321.5693 26.0915,-18.8127 119.1874,75.5735 c -0.9727,1.7779 -1.8087,3.641 -2.4956,5.5751 z"
           inkscape:connector-curvature="0" />
        <path
           id="path12"
           style="fill:#102a83;fill-rule:evenodd;stroke:#102a83;stroke-width:0.78350002;stroke-linecap:round;stroke-linejoin:round;stroke-dasharray:none"
           d="m 147.8952,302.7566 2.3568,-31.0025 120.6546,100.8652 c -1.4365,1.7799 -2.7187,3.6903 -3.824,5.7108 z"
           inkscape:connector-curvature="0" />
        <path
           id="path14"
           style="fill:#ffec00;fill-rule:evenodd;stroke:#ffec00;stroke-width:0.78350002;stroke-linecap:round;stroke-linejoin:round;stroke-dasharray:none"
           d="m 150.252,271.7541 31.935,-8.1611 92.9385,104.5689 c -1.5208,1.3716 -2.9315,2.8616 -4.2189,4.4574 z"
           inkscape:connector-curvature="0" />
        <path
           id="path16"
           style="fill:#102a83;fill-rule:evenodd;stroke:#102a83;stroke-width:0.78350002;stroke-linecap:round;stroke-linejoin:round;stroke-dasharray:none"
           d="m 182.187,263.593 10.6022,-31.4281 86.5099,132.7241 c -1.4663,0.9963 -2.8606,2.0894 -4.1736,3.2729 z"
           inkscape:connector-curvature="0" />
        <path
           id="path18"
           style="fill:#ffec00;fill-rule:evenodd;stroke:#ffec00;stroke-width:0.78350002;stroke-linecap:round;stroke-linejoin:round;stroke-dasharray:none"
           d="m 192.7892,232.1649 33.2738,1.6359 57.4447,128.6029 c -1.4591,0.7404 -2.8637,1.5712 -4.2086,2.4853 z"
           inkscape:connector-curvature="0" />
        <path
           id="path20"
           style="fill:#102a83;fill-rule:evenodd;stroke:#102a83;stroke-width:0.78350002;stroke-linecap:round;stroke-linejoin:round;stroke-dasharray:none"
           d="m 226.063,233.8008 19.6538,-26.797 43.0596,153.2036 c -1.82,0.6046 -3.5804,1.3398 -5.2687,2.1963 z"
           inkscape:connector-curvature="0" />
        <path
           id="path22"
           style="fill:#ffec00;fill-rule:evenodd;stroke:#ffec00;stroke-width:0.78350002;stroke-linecap:round;stroke-linejoin:round;stroke-dasharray:none"
           d="m 288.7764,360.2095 -43.0596,-153.2057 29.6842,11.3755 19.0533,140.4194 c -1.9464,0.3291 -3.8415,0.801 -5.6779,1.4108 z"
           inkscape:connector-curvature="0" />
        <path
           id="path24"
           style="fill:#102a83;fill-rule:evenodd;stroke:#102a83;stroke-width:0.78350002;stroke-linecap:round;stroke-linejoin:round;stroke-dasharray:none"
           d="m 294.4543,358.7987 -19.0533,-140.4194 26.7487,-19.2764 -1.2134,159.1498 h -0.005 c -2.2076,0 -4.37,0.1902 -6.4769,0.546 z"
           inkscape:connector-curvature="0" />
        <path
           id="path26"
           style="fill:#ffec00;fill-rule:evenodd;stroke:#ffec00;stroke-width:0.78350002;stroke-linecap:round;stroke-linejoin:round;stroke-dasharray:none"
           d="m 300.9363,358.2527 1.2134,-159.1498 25.3615,21.522 -21.4614,137.9692 c -1.675,-0.2221 -3.3788,-0.3414 -5.1135,-0.3414 z"
           inkscape:connector-curvature="0" />
        <path
           id="path28"
           style="fill:#102a83;fill-rule:evenodd;stroke:#102a83;stroke-width:0.78350002;stroke-linecap:round;stroke-linejoin:round;stroke-dasharray:none"
           d="m 306.0498,358.5931 21.4614,-137.9682 34.5385,-11.3507 -50.0619,150.5887 c -1.9217,-0.5747 -3.9042,-0.9994 -5.938,-1.2698 z"
           inkscape:connector-curvature="0" />
        <path
           id="path30"
           style="fill:#ffec00;fill-rule:evenodd;stroke:#ffec00;stroke-width:0.78350002;stroke-linecap:round;stroke-linejoin:round;stroke-dasharray:none"
           d="m 311.9868,359.866 50.0629,-150.5918 17.7372,28.2139 -62.918,124.2041 c -1.5742,-0.7157 -3.203,-1.3244 -4.8821,-1.8262 z"
           inkscape:connector-curvature="0" />
        <path
           id="path32"
           style="fill:#102a83;fill-rule:evenodd;stroke:#102a83;stroke-width:0.78350002;stroke-linecap:round;stroke-linejoin:round;stroke-dasharray:none"
           d="m 316.8679,361.6942 62.919,-124.2061 31.6944,-2.7969 -89.5997,129.7474 c -1.5948,-1.0344 -3.2678,-1.9506 -5.0137,-2.7444 z"
           inkscape:connector-curvature="0" />
        <path
           id="path34"
           style="fill:#ffec00;fill-rule:evenodd;stroke:#ffec00;stroke-width:0.78350002;stroke-linecap:round;stroke-linejoin:round;stroke-dasharray:none"
           d="m 321.8805,364.4396 89.6008,-129.7484 12.9929,28.9347 -98.3614,103.9869 c -1.3347,-1.1527 -2.7475,-2.2097 -4.2323,-3.1732 z"
           inkscape:connector-curvature="0" />
        <path
           id="path36"
           style="fill:#102a83;fill-rule:evenodd;stroke:#102a83;stroke-width:0.78350002;stroke-linecap:round;stroke-linejoin:round;stroke-dasharray:none"
           d="m 326.1097,367.6159 98.3645,-103.99 26.8792,9.3457 -121.7446,98.0704 c -1.093,-1.2154 -2.2611,-2.3578 -3.4991,-3.4261 z"
           inkscape:connector-curvature="0" />
        <path
           id="path38"
           style="fill:#ffec00;fill-rule:evenodd;stroke:#ffec00;stroke-width:0.78350002;stroke-linecap:round;stroke-linejoin:round;stroke-dasharray:none"
           d="m 329.6078,371.043 121.7456,-98.0714 4.3175,32.8121 -122.4921,69.8884 c -1.0734,-1.6349 -2.2683,-3.1803 -3.571,-4.6291 z"
           inkscape:connector-curvature="0" />
        <path
           id="path40"
           style="fill:#102a83;fill-rule:evenodd;stroke:#102a83;stroke-width:0.78350002;stroke-linecap:round;stroke-linejoin:round;stroke-dasharray:none"
           d="m 333.1788,375.6721 122.4921,-69.8884 23.6228,16.8786 -142.5294,59.8898 c -0.9665,-2.4246 -2.1706,-4.7258 -3.5855,-6.88 z"
           inkscape:connector-curvature="0" />
        <path
           id="path42"
           style="fill:#ffec00;fill-rule:evenodd;stroke:#ffec00;stroke-width:0.78350002;stroke-linecap:round;stroke-linejoin:round;stroke-dasharray:none"
           d="m 336.7633,382.5521 142.5304,-59.8898 -2.5439,32.0245 -138.4298,32.6754 c -0.4164,-1.6493 -0.9367,-3.2534 -1.5567,-4.8101 z"
           inkscape:connector-curvature="0" />
        <path
           id="path44"
           style="fill:#102a83;fill-rule:evenodd;stroke:#102a83;stroke-width:0.78350002;stroke-linecap:round;stroke-linejoin:round;stroke-dasharray:none"
           d="m 338.32,387.3622 138.4298,-32.6754 14.5681,24.5513 -151.9398,14.6154 c -0.1697,-2.2231 -0.5285,-4.3896 -1.0581,-6.4913 z"
           inkscape:connector-curvature="0" />
        <path
           id="path46"
           style="fill:#ffec00;fill-rule:evenodd;stroke:#ffec00;stroke-width:0.78350002;stroke-linecap:round;stroke-linejoin:round;stroke-dasharray:none"
           d="m 339.3781,393.8535 151.9398,-14.6154 -19.4285,30.0215 -132.4671,-10.1889 c 0.0432,-0.7475 0.0689,-1.4991 0.0689,-2.258 0,-0.9953 -0.0391,-1.9824 -0.1131,-2.9592 z"
           inkscape:connector-curvature="0" />
      </g>
      <g
         id="Layer1003">
        <path
           id="path49"
           style="fill:#102a83;fill-rule:evenodd;stroke:#102a83;stroke-width:0.78350002;stroke-linecap:round;stroke-linejoin:round;stroke-dasharray:none"
           d="m 339.4223,399.0707 95.253,7.3273 -11.8875,18.2708 -84.1439,-19.7926 c 0.4021,-1.8879 0.6643,-3.8261 0.7784,-5.8055 z"
           inkscape:connector-curvature="0" />
        <path
           id="path51"
           style="fill:#ffec00;fill-rule:evenodd;stroke:#ffec00;stroke-width:0.78350002;stroke-linecap:round;stroke-linejoin:round;stroke-dasharray:none"
           d="m 338.6429,404.8752 84.1449,19.7936 1.6432,24.471 -87.8559,-37.6006 c 0.8822,-2.1316 1.5773,-4.3598 2.0678,-6.664 z"
           inkscape:connector-curvature="0" />
        <path
           id="path53"
           style="fill:#102a83;fill-rule:evenodd;stroke:#102a83;stroke-width:0.78350002;stroke-linecap:round;stroke-linejoin:round;stroke-dasharray:none"
           d="m 336.5741,411.5392 87.8569,37.6006 -15.9768,10.0984 -74.6749,-42.2267 c 1.0725,-1.7388 2.0061,-3.5649 2.7948,-5.4723 z"
           inkscape:connector-curvature="0" />
        <path
           id="path55"
           style="fill:#ffec00;fill-rule:evenodd;stroke:#ffec00;stroke-width:0.78350002;stroke-linecap:round;stroke-linejoin:round;stroke-dasharray:none"
           d="m 333.7773,417.0104 74.6769,42.2278 -4.2466,23.1045 -73.2642,-61.3252 c 1.0273,-1.2719 1.9722,-2.6087 2.8339,-4.0071 z"
           inkscape:connector-curvature="0" />
        <path
           id="path57"
           style="fill:#102a83;fill-rule:evenodd;stroke:#102a83;stroke-width:0.78350002;stroke-linecap:round;stroke-linejoin:round;stroke-dasharray:none"
           d="m 330.9414,421.0165 73.2662,61.3262 -18.0971,7.2491 -59.5289,-63.9956 c 1.5753,-1.4056 3.0323,-2.9366 4.3598,-4.5797 z"
           inkscape:connector-curvature="0" />
        <path
           id="path59"
           style="fill:#ffec00;fill-rule:evenodd;stroke:#ffec00;stroke-width:0.78350002;stroke-linecap:round;stroke-linejoin:round;stroke-dasharray:none"
           d="m 326.5806,425.5942 59.5299,63.9976 -11.3815,19.1962 -52.9996,-79.5045 c 1.7161,-1.1023 3.3346,-2.3372 4.8512,-3.6893 z"
           inkscape:connector-curvature="0" />
        <path
           id="path61"
           style="fill:#102a83;fill-rule:evenodd;stroke:#102a83;stroke-width:0.78350002;stroke-linecap:round;stroke-linejoin:round;stroke-dasharray:none"
           d="m 321.7284,429.2825 53.0006,79.5055 -19.8152,-0.2252 -38.5302,-76.4187 c 1.8631,-0.8165 3.6482,-1.7727 5.3448,-2.8616 z"
           inkscape:connector-curvature="0" />
        <path
           id="path63"
           style="fill:#ffec00;fill-rule:evenodd;stroke:#ffec00;stroke-width:0.78350002;stroke-linecap:round;stroke-linejoin:round;stroke-dasharray:none"
           d="m 316.3825,432.1441 38.5313,76.4187 -16.0796,16.9135 -26.8978,-91.7045 c 1.5239,-0.4535 3.0066,-0.9974 4.4461,-1.6277 z"
           inkscape:connector-curvature="0" />
        <path
           id="path65"
           style="fill:#102a83;fill-rule:evenodd;stroke:#102a83;stroke-width:0.78350002;stroke-linecap:round;stroke-linejoin:round;stroke-dasharray:none"
           d="m 311.9364,433.7718 26.8978,91.7045 -20.4384,-5.8013 -11.2314,-84.8102 c 1.6277,-0.2653 3.2194,-0.6314 4.772,-1.093 z"
           inkscape:connector-curvature="0" />
        <path
           id="path67"
           style="fill:#ffec00;fill-rule:evenodd;stroke:#ffec00;stroke-width:0.78350002;stroke-linecap:round;stroke-linejoin:round;stroke-dasharray:none"
           d="m 307.1644,434.8648 11.2314,84.8102 -16.2297,11.2294 0.036,-95.5584 c 1.6842,-0.0555 3.3387,-0.217 4.9623,-0.4812 z"
           inkscape:connector-curvature="0" />
        <path
           id="path69"
           style="fill:#102a83;fill-rule:evenodd;stroke:#102a83;stroke-width:0.78350002;stroke-linecap:round;stroke-linejoin:round;stroke-dasharray:none"
           d="m 302.2021,435.346 -0.036,95.5584 -19.0409,-11.2088 v 0 l 11.5718,-84.8318 c 2.0307,0.33 4.1109,0.5069 6.2342,0.5069 0.4257,0 0.8483,-0.0113 1.2709,-0.0247 z"
           inkscape:connector-curvature="0" />
        <path
           id="path71"
           style="fill:#ffec00;fill-rule:evenodd;stroke:#ffec00;stroke-width:0.78350002;stroke-linecap:round;stroke-linejoin:round;stroke-dasharray:none"
           d="m 294.697,434.8648 -11.5718,84.8308 -23.3318,4.7844 28.9614,-91.0722 c 1.9187,0.6385 3.9021,1.1249 5.9422,1.457 z"
           inkscape:connector-curvature="0" />
        <path
           id="path73"
           style="fill:#102a83;fill-rule:evenodd;stroke:#102a83;stroke-width:0.78350002;stroke-linecap:round;stroke-linejoin:round;stroke-dasharray:none"
           d="m 288.7568,433.4037 -28.9634,91.0763 -11.7271,-15.9984 35.1792,-77.4007 c 1.7624,0.912 3.6029,1.6873 5.5113,2.3228 z"
           inkscape:connector-curvature="0" />
        <path
           id="path75"
           style="fill:#ffec00;fill-rule:evenodd;stroke:#ffec00;stroke-width:0.78350002;stroke-linecap:round;stroke-linejoin:round;stroke-dasharray:none"
           d="m 283.2455,431.0798 -35.1792,77.4018 -24.8279,-2.366 54.9348,-78.1791 c 1.603,1.1732 3.2955,2.2241 5.0723,3.1433 z"
           inkscape:connector-curvature="0" />
        <path
           id="path77"
           style="fill:#102a83;fill-rule:evenodd;stroke:#102a83;stroke-width:0.78350002;stroke-linecap:round;stroke-linejoin:round;stroke-dasharray:none"
           d="m 223.2384,506.1156 -6.6414,-17.7351 57.0992,-64.2752 c 1.3912,1.3881 2.8873,2.6693 4.4759,3.8333 z"
           inkscape:connector-curvature="0" />
        <path
           id="path79"
           style="fill:#ffec00;fill-rule:evenodd;stroke:#ffec00;stroke-width:0.78350002;stroke-linecap:round;stroke-linejoin:round;stroke-dasharray:none"
           d="m 273.6972,424.1043 -57.1002,64.2762 v 0 l -21.049,-8.6444 74.9257,-59.2852 c 0.9984,1.2853 2.0729,2.5048 3.2235,3.6534 z"
           inkscape:connector-curvature="0" />
        <path
           id="path81"
           style="fill:#102a83;fill-rule:evenodd;stroke:#102a83;stroke-width:0.78350002;stroke-linecap:round;stroke-linejoin:round;stroke-dasharray:none"
           d="m 195.548,479.7361 -3.8714,-21.6125 75.7309,-42.2463 c 0.9131,1.601 1.9372,3.129 3.0621,4.5767 z"
           inkscape:connector-curvature="0" />
        <path
           id="path83"
           style="fill:#ffec00;fill-rule:evenodd;stroke:#ffec00;stroke-width:0.78350002;stroke-linecap:round;stroke-linejoin:round;stroke-dasharray:none"
           d="m 267.4137,415.8742 -75.7371,42.2494 -16.8384,-15.5758 90.2331,-31.5464 c 0.6684,1.6873 1.4529,3.312 2.3424,4.8728 z"
           inkscape:connector-curvature="0" />
        <path
           id="path85"
           style="fill:#102a83;fill-rule:evenodd;stroke:#102a83;stroke-width:0.78350002;stroke-linecap:round;stroke-linejoin:round;stroke-dasharray:none"
           d="m 265.0662,410.987 -90.228,31.5608 3.7952,-20.0363 84.6714,-17.2559 c 0.4411,1.9722 1.0313,3.8857 1.7614,5.7314 z"
           inkscape:connector-curvature="0" />
        <path
           id="path87"
           style="fill:#ffec00;fill-rule:evenodd;stroke:#ffec00;stroke-width:0.78350002;stroke-linecap:round;stroke-linejoin:round;stroke-dasharray:none"
           d="m 263.3048,405.2556 -84.6714,17.2559 -11.6222,-18.751 95.5841,-2.8142 c 0.1574,1.4621 0.3949,2.8996 0.7095,4.3093 z"
           inkscape:connector-curvature="0" />
      </g>
    </g>
  </g>
</svg>
